HIERARCHY
ROOT Hips
{
	OFFSET 0.000000 0.651286 0.000000
	CHANNELS 6 Xposition Yposition Zposition Zrotation Yrotation Xrotation 
	JOINT LeftUpperLeg
	{
		OFFSET 0.042586 -0.009866 -0.052112
		CHANNELS 3 Zrotation Yrotation Xrotation
		JOINT LeftLowerLeg
		{
			OFFSET 0.087349 -0.363558 0.099630
			CHANNELS 3 Zrotation Yrotation Xrotation
			JOINT LeftFoot
			{
				OFFSET -0.067699 -0.172285 -0.346622
				CHANNELS 3 Zrotation Yrotation Xrotation
				End Site #name: L_Foot
				{
					OFFSET 0.036468 -0.103171 0.066606
				}
			}
		}
	}
	JOINT RightUpperLeg
	{
		OFFSET -0.074887 0.009771 -0.035352
		CHANNELS 3 Zrotation Yrotation Xrotation
		JOINT RightLowerLeg
		{
			OFFSET -0.161154 -0.214684 0.265582
			CHANNELS 3 Zrotation Yrotation Xrotation
			JOINT RightFoot
			{
				OFFSET 0.026004 -0.417503 0.016729
				CHANNELS 3 Zrotation Yrotation Xrotation
				End Site #name: R_Foot
				{
					OFFSET -0.075871 -0.026775 0.121117
				}
			}
		}
	}
	JOINT Spine
	{
		OFFSET 0.030430 0.196811 0.026713
		CHANNELS 3 Zrotation Yrotation Xrotation
		JOINT Chest
		{
			OFFSET 0.008597 -0.064223 0.102129
			CHANNELS 3 Zrotation Yrotation Xrotation
			JOINT UpperChest
			{
				OFFSET 0.001702 -0.030906 0.048192
				CHANNELS 3 Zrotation Yrotation Xrotation
				JOINT Neck
				{
					OFFSET 0.002408 -0.000306 0.186784
					CHANNELS 3 Zrotation Yrotation Xrotation
					End Site #name: Head
					{
						OFFSET -0.002076 -0.036460 0.070062
					}
				}
				JOINT LeftShoulder
				{
					OFFSET 0.076313 -0.032313 0.097023
					CHANNELS 3 Zrotation Yrotation Xrotation
					JOINT LeftUpperArm
					{
						OFFSET 0.100049 -0.084426 0.028322
						CHANNELS 3 Zrotation Yrotation Xrotation
						JOINT LeftLowerArm
						{
							OFFSET 0.152735 -0.166657 -0.071444
							CHANNELS 3 Zrotation Yrotation Xrotation
							End Site #name: L_Wrist
							{
								OFFSET 0.016312 -0.276777 -0.043622
							}
						}
					}
				}
				JOINT RightShoulder
				{
					OFFSET -0.073584 0.004170 0.097020
					CHANNELS 3 Zrotation Yrotation Xrotation
					JOINT RightUpperArm
					{
						OFFSET -0.106908 -0.037489 0.038454
						CHANNELS 3 Zrotation Yrotation Xrotation
						JOINT RightLowerArm
						{
							OFFSET -0.199249 -0.077724 -0.131054
							CHANNELS 3 Zrotation Yrotation Xrotation
							End Site #name: R_Wrist
							{
								OFFSET 0.104617 -0.258028 -0.016396
							}
						}
					}
				}
			}
		}
	}
}
MOTION
Frames: 23
Frame Time: 0.041667
0.361662 0.837069 0.384627 -0.818876 -2.642106 -14.372094 -5.937932 0.242832 6.402287 7.981670 -1.908814 -28.094927 -2.463893 -0.147482 3.842387 8.292178 -8.444995 24.589140 -14.333943 -0.794198 -1.118540 2.005581 9.161367 0.108201 3.147579 4.084392 -18.073768 -2.735696 -2.879488 11.726701 -1.082278 3.596861 -5.564375 -1.160725 -2.153808 -7.027626 0.978045 7.673245 6.435385 -0.674267 15.104451 15.049532 -14.459668 3.797161 7.731134 -8.440129 -4.445109 -1.201513 -15.161527 1.437658 9.848480 9.743303 7.107448 24.257837 
0.364700 0.812009 0.395200 -0.430788 -2.710743 -13.276450 -5.806634 -0.434264 3.983271 5.948137 -1.167140 -22.967772 -1.787186 -0.382511 2.083346 9.489624 -5.020970 20.905655 -12.835599 -1.372516 -4.827469 1.572927 8.070111 -0.206341 2.970455 3.854314 -15.622895 -2.329138 -2.512733 10.210225 -1.021575 3.205338 -5.287785 -1.102182 -2.020306 -7.162721 -0.027236 6.603780 5.671830 -1.890547 13.055172 12.277616 -11.859622 2.918884 6.143264 -7.176459 -3.285547 -1.267072 -13.451014 1.050487 8.795701 7.915270 6.253755 20.213307 
0.365796 0.785906 0.408665 -0.169790 -2.845530 -12.176568 -5.407333 -1.088740 1.401283 4.020620 -0.406703 -17.535440 -1.186448 -0.557878 0.572641 9.657686 -2.470491 17.537217 -12.075084 -1.868919 -8.113889 1.899775 7.303077 0.517727 2.818129 3.664417 -13.713337 -2.021149 -2.243195 8.802786 -0.933792 2.811195 -5.059931 -0.956360 -1.687022 -7.369791 -0.649637 5.750632 5.052425 -2.480960 11.225936 10.149134 -9.903131 2.397090 5.507270 -6.076393 -2.251117 -1.312359 -12.007750 1.089445 7.742260 6.458595 5.423153 16.814525 
0.364954 0.759081 0.425146 0.025333 -2.983065 -11.050233 -4.904470 -1.667180 -1.063418 2.233640 0.453882 -12.179385 -0.581026 -0.689447 -0.863914 9.237404 -0.677143 14.588607 -11.713541 -2.317728 -11.025336 2.381891 6.713438 1.426617 2.698723 3.508043 -12.483667 -1.828419 -2.092515 7.630188 -0.824810 2.426555 -4.894170 -0.802175 -1.329472 -7.636325 -0.972792 5.125045 4.582286 -2.477853 9.772202 8.743725 -8.742626 2.118349 5.263908 -5.040067 -1.452313 -1.266095 -10.836613 1.269075 6.828212 5.246915 4.715075 14.114749 
0.362270 0.729927 0.444655 0.185436 -3.145611 -9.775250 -4.294702 -2.196377 -3.530106 0.457982 1.522013 -6.586492 -0.157048 -0.868796 -2.131867 8.439368 0.621975 11.834720 -11.393519 -2.806000 -14.225745 2.782034 6.196935 2.194825 2.575284 3.316616 -11.718642 -1.703121 -2.009900 6.647013 -0.695887 2.077483 -4.801615 -0.651064 -0.969372 -8.025769 -1.075605 4.577580 4.138585 -2.341920 8.578549 7.655350 -7.995571 1.962735 5.262539 -3.994901 -0.767144 -1.158681 -9.831180 1.480394 6.025469 4.155219 4.032318 11.691513 
0.357586 0.698349 0.467242 0.376370 -3.254240 -8.266800 -3.664032 -2.629947 -5.760068 -1.230312 2.742319 -0.835320 0.027818 -1.098626 -3.106223 7.447399 1.597598 9.231489 -11.203443 -3.410540 -18.049287 2.906673 5.753199 2.529193 2.446500 3.088543 -11.349598 -1.643086 -2.008087 5.737688 -0.544189 1.754532 -4.742459 -0.560838 -0.750875 -8.263931 -0.984343 4.116544 3.728100 -1.871080 7.606912 6.963191 -7.715429 1.909741 5.302496 -2.920543 -0.328405 -0.936517 -9.043976 1.501439 5.468344 3.236586 3.342399 9.442623 
0.350814 0.666222 0.493062 0.553393 -3.208823 -6.542229 -3.156851 -2.887882 -7.284864 -2.612130 3.736986 4.871969 -0.196342 -1.456437 -3.655622 6.133390 2.367665 6.406933 -11.092476 -3.801332 -20.521488 2.681848 5.222207 2.367804 2.198225 2.618816 -11.073889 -1.562315 -1.976372 4.821052 -0.364558 1.438201 -4.731394 -0.531736 -0.689185 -8.144998 -0.670926 3.632762 3.247417 -1.261131 6.939770 6.639415 -7.382837 1.824746 5.178664 -1.726798 -0.073721 -0.597496 -8.323127 1.452566 4.992027 2.465235 2.634854 7.294293 
0.341748 0.633156 0.522427 0.830101 -3.323010 -4.408635 -2.541153 -2.809649 -7.785302 -3.681852 4.560057 9.914618 -0.497720 -1.844481 -4.127617 4.484177 3.358204 2.771234 -10.957469 -3.203847 -17.102362 3.128812 3.808880 3.532606 1.755853 1.719802 -11.255210 -1.268414 -1.622929 4.031859 -0.081168 1.048713 -4.673252 -0.516661 -0.618696 -8.874014 0.070111 3.374677 2.855454 -0.762034 6.621462 6.598544 -6.981042 1.649361 4.432456 -0.251083 0.014456 -0.095483 -6.991425 1.763764 3.940739 1.898708 2.179488 5.929418 
0.330801 0.611684 0.554058 0.821858 -3.267533 -2.487687 -2.418561 -2.539470 -6.961510 -3.738866 3.781641 12.517323 -1.025378 -2.118449 -3.871818 2.488499 4.107869 -1.179846 -8.348198 -1.615761 -9.354336 3.576009 2.089011 4.841133 0.885771 0.063906 -10.704907 -0.699249 -0.851281 3.288571 0.264659 0.594452 -4.549342 -0.322818 -0.166938 -8.815927 1.157598 2.956917 2.232986 -0.375774 6.556238 6.751270 -6.785015 1.499817 3.524426 1.375795 0.602189 0.289188 -5.598328 1.551116 3.089952 1.039671 1.874469 4.897673 
0.318692 0.605264 0.586018 0.690716 -3.205061 -1.331262 -2.651628 -2.103232 -5.081605 -3.224159 2.126298 13.189698 -1.711629 -2.128927 -2.662039 1.150539 4.296686 -3.521288 -5.234936 -0.470721 -2.398610 3.205708 0.955689 4.696656 -0.014582 -1.532432 -9.698360 -0.191693 -0.127199 2.935899 0.560590 0.040912 -4.410888 -0.088894 0.383940 -8.844211 2.231027 2.550634 1.607167 -0.246153 6.611002 6.881684 -6.671182 1.365268 2.585953 2.505069 1.243504 0.486690 -4.412554 1.260537 2.416911 0.552581 1.841316 4.678579 
0.306157 0.608997 0.616894 0.649519 -3.247399 -0.713428 -2.987281 -1.584298 -2.796830 -2.428701 0.400493 12.245500 -2.411920 -1.942589 -0.962389 0.700174 4.236493 -4.175976 -2.954866 0.058400 2.006831 2.398918 0.253858 3.704042 -0.779850 -2.767004 -8.499870 0.167337 0.391547 2.705325 0.754753 -0.316266 -4.232525 0.085072 0.780005 -8.695606 3.075866 2.226411 1.098746 -0.194924 6.632268 6.932936 -6.639814 1.278197 1.905676 2.892334 1.553197 0.527859 -3.627997 1.087030 1.964953 0.866443 1.877716 4.856843 
0.293615 0.617642 0.646267 0.655947 -3.409151 -0.313901 -3.306602 -1.024506 -0.408830 -1.429557 -1.266432 10.275113 -3.121018 -1.691957 0.870212 0.772132 4.002294 -3.781279 -1.283854 0.293052 4.688935 1.493199 -0.246430 2.464311 -1.472479 -3.811310 -7.326320 0.460840 0.819462 2.532510 0.881945 -0.481293 -3.998783 0.192717 1.005260 -8.395982 3.792193 2.004746 0.707621 -0.071102 6.706122 7.080224 -6.902084 1.245084 1.253132 2.817608 1.589662 0.488652 -3.095668 0.964758 1.660816 1.483075 1.999550 5.342695 
0.281182 0.629992 0.673656 0.750863 -3.646281 -0.066654 -3.439008 -0.409906 1.974880 -0.286853 -2.719470 7.519519 -4.148730 -1.500526 3.008602 1.231498 3.719095 -2.702782 -0.060413 0.401132 6.432289 0.504731 -0.606430 1.024107 -2.083652 -4.693322 -6.304085 0.693055 1.160683 2.419551 0.953272 -0.465663 -3.726426 0.266003 1.134553 -7.948727 4.291797 1.886895 0.464459 0.147817 6.773972 7.276684 -7.100423 1.214676 0.731938 2.453871 1.470154 0.393932 -2.802781 0.803680 1.532304 2.431489 2.208408 6.174325 
0.268845 0.645802 0.698583 0.956697 -4.015699 0.043395 -3.151883 0.141187 3.753636 0.761115 -3.799855 4.843512 -5.908405 -1.372033 5.979678 2.113080 3.431269 -0.955665 0.546642 0.452310 7.495885 -0.626126 -0.696255 -0.758826 -2.610457 -5.423119 -5.422447 0.889749 1.452760 2.397928 0.983954 -0.198131 -3.419979 0.357657 1.321104 -7.695556 4.428541 1.951640 0.486470 0.399771 6.626060 7.269090 -7.117624 1.178172 0.412764 1.940496 1.220402 0.287941 -2.659517 0.680255 1.487633 3.241147 2.550685 7.350129 
0.257007 0.667264 0.720159 1.300050 -4.384221 -0.168638 -2.453089 0.491683 4.456568 1.180986 -4.275681 3.937396 -7.950543 -1.269685 9.054126 3.342980 3.026246 1.447366 0.534323 0.464494 7.702124 -1.783339 -0.486533 -2.700444 -2.948592 -5.828257 -4.667072 1.077968 1.732468 2.379647 0.954152 0.009206 -3.022498 0.779247 2.252898 -7.425184 4.085421 2.472866 1.056488 0.679766 6.250148 7.038488 -7.300066 1.148359 -0.064485 1.577850 1.393883 0.097073 -2.980510 0.541053 1.758887 3.407469 3.021744 8.662964 
0.246322 0.685851 0.737912 1.863717 -4.912768 -0.536917 -0.947207 0.547489 3.259329 0.975352 -3.597398 3.494488 -10.844472 -0.102306 15.328066 4.729293 2.908217 3.685084 -0.428818 0.455342 7.163009 -2.652038 -0.748473 -4.026129 -2.832084 -5.311199 -3.411648 1.147220 1.832221 2.209012 0.833853 0.338659 -2.894552 0.892239 2.448400 -6.921590 3.418197 2.937989 1.653039 0.060121 5.319955 5.714215 -6.849129 1.108330 0.197021 1.067130 1.753780 -0.212981 -2.624211 0.726915 1.445005 1.797031 3.692406 9.754906 
0.237902 0.703097 0.751757 2.730339 -5.510090 -1.220180 0.668048 0.478390 1.268712 1.066480 -3.263229 2.407270 -9.163987 0.755011 15.423282 5.843715 2.750710 5.516075 -2.144752 0.479822 6.983538 -3.077320 -0.754515 -4.718855 -2.304917 -4.146037 -2.225690 1.076551 1.726237 2.187784 0.658366 0.938738 -2.893892 0.943788 2.496695 -6.367069 2.429685 3.364578 2.283017 -0.238942 4.411734 4.599419 -6.615626 1.119883 0.611108 0.308706 2.024362 -0.589145 -2.354477 1.369730 1.002258 0.707947 4.149704 10.447017 
0.231943 0.718968 0.762742 3.835710 -6.072359 -2.152606 2.648528 0.415053 -1.427515 1.680365 -2.966458 -0.937447 -5.871825 1.386234 12.932050 6.544962 2.260398 7.130325 -4.030110 0.522670 7.012622 -3.380448 -0.063913 -5.430888 -1.539798 -2.641399 -1.023901 0.933415 1.510176 2.101442 0.443254 1.586836 -2.759641 0.909096 2.340696 -5.690224 1.410593 3.887375 2.989257 -0.789680 3.668233 3.528755 -6.192070 1.074762 0.825345 -0.318301 2.113413 -0.856679 -2.002134 2.251233 0.407433 -0.841813 4.515730 10.686731 
0.228844 0.730081 0.771812 4.918135 -6.532202 -3.022319 4.484521 0.484390 -3.702780 2.880169 -2.620532 -6.888339 -2.766294 2.125924 10.620009 6.736059 1.689811 8.113723 -5.590205 0.587209 7.290332 -3.646885 0.603513 -6.067379 -0.764837 -1.249341 -0.202707 0.770050 1.262736 2.004836 0.259468 2.265080 -2.586342 1.008341 2.491888 -5.142476 0.754521 4.373812 3.565058 -1.260539 3.383486 2.988229 -5.884756 1.034263 0.920414 -0.910263 2.021793 -1.048765 -1.805873 3.151774 -0.093834 -2.245357 4.934356 11.081881 
0.228677 0.735848 0.779574 5.847147 -6.873036 -3.675652 5.953002 0.664755 -5.137943 4.436058 -1.950401 -14.956616 -0.321339 2.858362 8.987515 6.586873 1.248129 8.459021 -6.767694 0.697511 7.963178 -3.998552 1.142084 -6.796206 -0.105853 -0.147373 0.153290 0.589990 0.987492 1.858500 0.164420 2.941291 -2.499348 1.319895 3.130607 -4.898392 0.507621 4.839199 4.025291 -1.364131 3.447338 3.001581 -5.980554 1.048436 0.903995 -1.338969 1.917843 -1.174337 -1.812166 3.972730 -0.433710 -3.339986 5.359918 11.588269 
0.231934 0.733212 0.786350 6.298543 -6.909978 -4.027645 6.152091 0.697541 -5.303045 6.000138 -1.344371 -22.657291 0.315285 2.628349 7.217995 5.812986 0.912632 7.777506 -6.804183 0.945846 9.985465 -4.319864 0.996693 -7.274661 0.269585 0.392344 -0.287392 0.461925 0.793620 1.826881 0.194277 3.605426 -2.651145 1.414209 3.417121 -5.509585 0.880298 5.092272 4.167551 -0.613582 3.976252 3.943456 -6.997151 1.260586 1.247209 -1.802317 1.448054 -1.180027 -2.302962 4.318867 -0.266101 -3.270325 5.632379 12.224184 
0.238768 0.725653 0.792116 6.202124 -7.036337 -3.946846 6.038002 0.501465 -6.157440 5.514730 -1.019360 -21.747020 0.476612 2.316250 5.978797 5.115569 0.816599 6.885191 -6.151895 1.066253 11.286079 -4.597806 1.090539 -7.752505 0.331240 0.397112 -1.032001 0.441664 0.763873 1.845696 0.247294 3.625906 -2.525373 1.245306 3.011998 -5.217128 1.389010 5.111442 4.076445 -0.357897 4.282913 4.400512 -7.776963 1.399545 1.291725 -1.880619 1.125469 -1.092051 -2.755535 4.904162 -0.228015 -3.528060 5.546209 11.922839 
0.246511 0.719445 0.797302 6.167255 -7.351211 -3.978468 5.650114 0.242674 -6.843297 4.498491 -0.493090 -19.254451 1.064096 2.201718 4.585598 4.627902 0.812981 6.170099 -6.020336 1.188247 12.409066 -4.627346 1.251216 -7.845815 0.399659 0.426341 -1.679230 0.400398 0.707147 1.976826 0.268494 3.619494 -2.573465 1.100350 2.706881 -5.279403 2.070886 5.087344 3.908777 -0.070830 4.693377 4.985867 -8.895530 1.579405 1.205547 -2.087391 0.915821 -1.092550 -3.267816 5.118089 0.006308 -3.075597 5.291320 11.545351 
